<mxfile host="app.diagrams.net" modified="2023-10-17T02:48:59.767Z" agent="Mozilla/5.0 (Windows NT 10.0; Win64; x64) AppleWebKit/537.36 (KHTML, like Gecko) Chrome/107.0.0.0 Safari/537.36" etag="zEdCK67i5Al2H4HkrkeM" version="22.0.4" type="github">
  <diagram name="第 1 页" id="gxdm-0aAgnOwsWH353nW">
    <mxGraphModel dx="909" dy="549" grid="1" gridSize="10" guides="1" tooltips="1" connect="1" arrows="1" fold="1" page="1" pageScale="1" pageWidth="827" pageHeight="1169" math="0" shadow="0">
      <root>
        <mxCell id="0" />
        <mxCell id="1" parent="0" />
        <mxCell id="CsIlmke54vW7xTLY1SJU-1" value="购物车" style="shape=umlLifeline;perimeter=lifelinePerimeter;whiteSpace=wrap;html=1;container=1;dropTarget=0;collapsible=0;recursiveResize=0;outlineConnect=0;portConstraint=eastwest;newEdgeStyle={&quot;curved&quot;:0,&quot;rounded&quot;:0};" vertex="1" parent="1">
          <mxGeometry x="200" y="160" width="100" height="840" as="geometry" />
        </mxCell>
        <mxCell id="CsIlmke54vW7xTLY1SJU-18" value="" style="html=1;points=[[0,0,0,0,5],[0,1,0,0,-5],[1,0,0,0,5],[1,1,0,0,-5]];perimeter=orthogonalPerimeter;outlineConnect=0;targetShapes=umlLifeline;portConstraint=eastwest;newEdgeStyle={&quot;curved&quot;:0,&quot;rounded&quot;:0};" vertex="1" parent="CsIlmke54vW7xTLY1SJU-1">
          <mxGeometry x="44" y="80" width="10" height="70" as="geometry" />
        </mxCell>
        <mxCell id="CsIlmke54vW7xTLY1SJU-2" value="" style="shape=umlLifeline;perimeter=lifelinePerimeter;whiteSpace=wrap;html=1;container=1;dropTarget=0;collapsible=0;recursiveResize=0;outlineConnect=0;portConstraint=eastwest;newEdgeStyle={&quot;curved&quot;:0,&quot;rounded&quot;:0};participant=umlActor;" vertex="1" parent="1">
          <mxGeometry x="120" y="160" width="20" height="840" as="geometry" />
        </mxCell>
        <mxCell id="CsIlmke54vW7xTLY1SJU-3" value="订单" style="shape=umlLifeline;perimeter=lifelinePerimeter;whiteSpace=wrap;html=1;container=1;dropTarget=0;collapsible=0;recursiveResize=0;outlineConnect=0;portConstraint=eastwest;newEdgeStyle={&quot;curved&quot;:0,&quot;rounded&quot;:0};" vertex="1" parent="1">
          <mxGeometry x="370" y="160" width="100" height="840" as="geometry" />
        </mxCell>
        <mxCell id="CsIlmke54vW7xTLY1SJU-21" value="" style="html=1;points=[[0,0,0,0,5],[0,1,0,0,-5],[1,0,0,0,5],[1,1,0,0,-5]];perimeter=orthogonalPerimeter;outlineConnect=0;targetShapes=umlLifeline;portConstraint=eastwest;newEdgeStyle={&quot;curved&quot;:0,&quot;rounded&quot;:0};" vertex="1" parent="CsIlmke54vW7xTLY1SJU-3">
          <mxGeometry x="46" y="101" width="10" height="99" as="geometry" />
        </mxCell>
        <mxCell id="CsIlmke54vW7xTLY1SJU-26" value="" style="html=1;points=[[0,0,0,0,5],[0,1,0,0,-5],[1,0,0,0,5],[1,1,0,0,-5]];perimeter=orthogonalPerimeter;outlineConnect=0;targetShapes=umlLifeline;portConstraint=eastwest;newEdgeStyle={&quot;curved&quot;:0,&quot;rounded&quot;:0};" vertex="1" parent="CsIlmke54vW7xTLY1SJU-3">
          <mxGeometry x="45" y="237" width="10" height="80" as="geometry" />
        </mxCell>
        <mxCell id="CsIlmke54vW7xTLY1SJU-29" value="" style="html=1;points=[[0,0,0,0,5],[0,1,0,0,-5],[1,0,0,0,5],[1,1,0,0,-5]];perimeter=orthogonalPerimeter;outlineConnect=0;targetShapes=umlLifeline;portConstraint=eastwest;newEdgeStyle={&quot;curved&quot;:0,&quot;rounded&quot;:0};" vertex="1" parent="CsIlmke54vW7xTLY1SJU-3">
          <mxGeometry x="45" y="345" width="10" height="135" as="geometry" />
        </mxCell>
        <mxCell id="CsIlmke54vW7xTLY1SJU-40" value="" style="html=1;points=[[0,0,0,0,5],[0,1,0,0,-5],[1,0,0,0,5],[1,1,0,0,-5]];perimeter=orthogonalPerimeter;outlineConnect=0;targetShapes=umlLifeline;portConstraint=eastwest;newEdgeStyle={&quot;curved&quot;:0,&quot;rounded&quot;:0};" vertex="1" parent="CsIlmke54vW7xTLY1SJU-3">
          <mxGeometry x="46" y="590" width="10" height="80" as="geometry" />
        </mxCell>
        <mxCell id="CsIlmke54vW7xTLY1SJU-4" value="订单审核列表" style="shape=umlLifeline;perimeter=lifelinePerimeter;whiteSpace=wrap;html=1;container=1;dropTarget=0;collapsible=0;recursiveResize=0;outlineConnect=0;portConstraint=eastwest;newEdgeStyle={&quot;curved&quot;:0,&quot;rounded&quot;:0};" vertex="1" parent="1">
          <mxGeometry x="550" y="160" width="100" height="840" as="geometry" />
        </mxCell>
        <mxCell id="CsIlmke54vW7xTLY1SJU-32" value="" style="html=1;points=[[0,0,0,0,5],[0,1,0,0,-5],[1,0,0,0,5],[1,1,0,0,-5]];perimeter=orthogonalPerimeter;outlineConnect=0;targetShapes=umlLifeline;portConstraint=eastwest;newEdgeStyle={&quot;curved&quot;:0,&quot;rounded&quot;:0};" vertex="1" parent="CsIlmke54vW7xTLY1SJU-4">
          <mxGeometry x="45" y="368" width="10" height="80" as="geometry" />
        </mxCell>
        <mxCell id="CsIlmke54vW7xTLY1SJU-35" value="" style="html=1;points=[[0,0,0,0,5],[0,1,0,0,-5],[1,0,0,0,5],[1,1,0,0,-5]];perimeter=orthogonalPerimeter;outlineConnect=0;targetShapes=umlLifeline;portConstraint=eastwest;newEdgeStyle={&quot;curved&quot;:0,&quot;rounded&quot;:0};" vertex="1" parent="CsIlmke54vW7xTLY1SJU-4">
          <mxGeometry x="45" y="120" width="10" height="80" as="geometry" />
        </mxCell>
        <mxCell id="CsIlmke54vW7xTLY1SJU-5" value="销售人员" style="shape=umlLifeline;perimeter=lifelinePerimeter;whiteSpace=wrap;html=1;container=1;dropTarget=0;collapsible=0;recursiveResize=0;outlineConnect=0;portConstraint=eastwest;newEdgeStyle={&quot;curved&quot;:0,&quot;rounded&quot;:0};" vertex="1" parent="1">
          <mxGeometry x="720" y="160" width="100" height="840" as="geometry" />
        </mxCell>
        <mxCell id="CsIlmke54vW7xTLY1SJU-19" value="选择商品" style="html=1;verticalAlign=bottom;endArrow=block;curved=0;rounded=0;entryX=0;entryY=0;entryDx=0;entryDy=5;" edge="1" target="CsIlmke54vW7xTLY1SJU-18" parent="1" source="CsIlmke54vW7xTLY1SJU-2">
          <mxGeometry relative="1" as="geometry">
            <mxPoint x="174" y="245" as="sourcePoint" />
          </mxGeometry>
        </mxCell>
        <mxCell id="CsIlmke54vW7xTLY1SJU-22" value="创建订单" style="html=1;verticalAlign=bottom;endArrow=block;curved=0;rounded=0;entryX=0;entryY=0;entryDx=0;entryDy=5;" edge="1" target="CsIlmke54vW7xTLY1SJU-21" parent="1" source="CsIlmke54vW7xTLY1SJU-1">
          <mxGeometry relative="1" as="geometry">
            <mxPoint x="346" y="266" as="sourcePoint" />
          </mxGeometry>
        </mxCell>
        <mxCell id="CsIlmke54vW7xTLY1SJU-23" value="订单创建成功" style="html=1;verticalAlign=bottom;endArrow=open;dashed=1;endSize=8;curved=0;rounded=0;exitX=0;exitY=1;exitDx=0;exitDy=-5;" edge="1" source="CsIlmke54vW7xTLY1SJU-21" parent="1" target="CsIlmke54vW7xTLY1SJU-2">
          <mxGeometry relative="1" as="geometry">
            <mxPoint x="346" y="336" as="targetPoint" />
          </mxGeometry>
        </mxCell>
        <mxCell id="CsIlmke54vW7xTLY1SJU-27" value="填写订单信息" style="html=1;verticalAlign=bottom;endArrow=block;curved=0;rounded=0;entryX=0;entryY=0;entryDx=0;entryDy=5;" edge="1" target="CsIlmke54vW7xTLY1SJU-26" parent="1" source="CsIlmke54vW7xTLY1SJU-2">
          <mxGeometry relative="1" as="geometry">
            <mxPoint x="345" y="402" as="sourcePoint" />
          </mxGeometry>
        </mxCell>
        <mxCell id="CsIlmke54vW7xTLY1SJU-28" value="订单信息保存成功" style="html=1;verticalAlign=bottom;endArrow=open;dashed=1;endSize=8;curved=0;rounded=0;exitX=0;exitY=1;exitDx=0;exitDy=-5;" edge="1" source="CsIlmke54vW7xTLY1SJU-26" parent="1" target="CsIlmke54vW7xTLY1SJU-2">
          <mxGeometry relative="1" as="geometry">
            <mxPoint x="345" y="472" as="targetPoint" />
          </mxGeometry>
        </mxCell>
        <mxCell id="CsIlmke54vW7xTLY1SJU-30" value="订单提交" style="html=1;verticalAlign=bottom;endArrow=block;curved=0;rounded=0;entryX=0;entryY=0;entryDx=0;entryDy=5;" edge="1" target="CsIlmke54vW7xTLY1SJU-29" parent="1" source="CsIlmke54vW7xTLY1SJU-2">
          <mxGeometry relative="1" as="geometry">
            <mxPoint x="345" y="510" as="sourcePoint" />
          </mxGeometry>
        </mxCell>
        <mxCell id="CsIlmke54vW7xTLY1SJU-31" value="提交成功" style="html=1;verticalAlign=bottom;endArrow=open;dashed=1;endSize=8;curved=0;rounded=0;exitX=0;exitY=1;exitDx=0;exitDy=-5;" edge="1" source="CsIlmke54vW7xTLY1SJU-29" parent="1" target="CsIlmke54vW7xTLY1SJU-2">
          <mxGeometry relative="1" as="geometry">
            <mxPoint x="345" y="580" as="targetPoint" />
          </mxGeometry>
        </mxCell>
        <mxCell id="CsIlmke54vW7xTLY1SJU-33" value="订单发送" style="html=1;verticalAlign=bottom;endArrow=block;curved=0;rounded=0;entryX=0;entryY=0;entryDx=0;entryDy=5;" edge="1" target="CsIlmke54vW7xTLY1SJU-32" parent="1" source="CsIlmke54vW7xTLY1SJU-29">
          <mxGeometry relative="1" as="geometry">
            <mxPoint x="525" y="533" as="sourcePoint" />
          </mxGeometry>
        </mxCell>
        <mxCell id="CsIlmke54vW7xTLY1SJU-34" value="发送成功" style="html=1;verticalAlign=bottom;endArrow=open;dashed=1;endSize=8;curved=0;rounded=0;exitX=0;exitY=1;exitDx=0;exitDy=-5;" edge="1" source="CsIlmke54vW7xTLY1SJU-32" parent="1" target="CsIlmke54vW7xTLY1SJU-3">
          <mxGeometry relative="1" as="geometry">
            <mxPoint x="525" y="603" as="targetPoint" />
          </mxGeometry>
        </mxCell>
        <mxCell id="CsIlmke54vW7xTLY1SJU-36" value="查看订单" style="html=1;verticalAlign=bottom;endArrow=block;curved=0;rounded=0;entryX=1;entryY=0;entryDx=0;entryDy=5;" edge="1" target="CsIlmke54vW7xTLY1SJU-35" parent="1" source="CsIlmke54vW7xTLY1SJU-5">
          <mxGeometry relative="1" as="geometry">
            <mxPoint x="675" y="255" as="sourcePoint" />
          </mxGeometry>
        </mxCell>
        <mxCell id="CsIlmke54vW7xTLY1SJU-37" value="返回订单" style="html=1;verticalAlign=bottom;endArrow=open;dashed=1;endSize=8;curved=0;rounded=0;exitX=1;exitY=1;exitDx=0;exitDy=-5;" edge="1" source="CsIlmke54vW7xTLY1SJU-35" parent="1" target="CsIlmke54vW7xTLY1SJU-5">
          <mxGeometry relative="1" as="geometry">
            <mxPoint x="675" y="325" as="targetPoint" />
          </mxGeometry>
        </mxCell>
        <mxCell id="CsIlmke54vW7xTLY1SJU-38" value="alt" style="shape=umlFrame;whiteSpace=wrap;html=1;pointerEvents=0;" vertex="1" parent="1">
          <mxGeometry x="350" y="660" width="460" height="320" as="geometry" />
        </mxCell>
        <mxCell id="CsIlmke54vW7xTLY1SJU-39" value="if【如果订单通过】" style="text;align=center;verticalAlign=middle;resizable=0;points=[];autosize=1;strokeColor=none;fillColor=none;" vertex="1" parent="1">
          <mxGeometry x="345" y="698" width="130" height="30" as="geometry" />
        </mxCell>
        <mxCell id="CsIlmke54vW7xTLY1SJU-41" value="审核通过" style="html=1;verticalAlign=bottom;endArrow=block;curved=0;rounded=0;entryX=1;entryY=0;entryDx=0;entryDy=5;" edge="1" target="CsIlmke54vW7xTLY1SJU-40" parent="1" source="CsIlmke54vW7xTLY1SJU-5">
          <mxGeometry relative="1" as="geometry">
            <mxPoint x="496" y="755" as="sourcePoint" />
          </mxGeometry>
        </mxCell>
        <mxCell id="CsIlmke54vW7xTLY1SJU-43" value="提醒通过" style="html=1;verticalAlign=bottom;endArrow=open;dashed=1;endSize=8;curved=0;rounded=0;" edge="1" parent="1" target="CsIlmke54vW7xTLY1SJU-2">
          <mxGeometry relative="1" as="geometry">
            <mxPoint x="414" y="820" as="sourcePoint" />
            <mxPoint x="334" y="820" as="targetPoint" />
          </mxGeometry>
        </mxCell>
        <mxCell id="CsIlmke54vW7xTLY1SJU-44" value="" style="line;strokeWidth=1;fillColor=#2156f2;align=left;verticalAlign=middle;spacingTop=-1;spacingLeft=3;spacingRight=3;rotatable=0;labelPosition=right;points=[];portConstraint=eastwest;strokeColor=inherit;dashed=1;fontColor=#933434;labelBackgroundColor=#ce7373;" vertex="1" parent="1">
          <mxGeometry x="330" y="840" width="540" height="8" as="geometry" />
        </mxCell>
        <mxCell id="CsIlmke54vW7xTLY1SJU-45" value="else 【订单不通过】" style="text;html=1;align=center;verticalAlign=middle;resizable=0;points=[];autosize=1;strokeColor=none;fillColor=none;" vertex="1" parent="1">
          <mxGeometry x="353" y="858" width="130" height="30" as="geometry" />
        </mxCell>
        <mxCell id="CsIlmke54vW7xTLY1SJU-46" value="" style="html=1;points=[[0,0,0,0,5],[0,1,0,0,-5],[1,0,0,0,5],[1,1,0,0,-5]];perimeter=orthogonalPerimeter;outlineConnect=0;targetShapes=umlLifeline;portConstraint=eastwest;newEdgeStyle={&quot;curved&quot;:0,&quot;rounded&quot;:0};" vertex="1" parent="1">
          <mxGeometry x="415" y="896" width="10" height="80" as="geometry" />
        </mxCell>
        <mxCell id="CsIlmke54vW7xTLY1SJU-47" value="订单不合格" style="html=1;verticalAlign=bottom;endArrow=block;curved=0;rounded=0;entryX=1;entryY=0;entryDx=0;entryDy=5;" edge="1" target="CsIlmke54vW7xTLY1SJU-46" parent="1" source="CsIlmke54vW7xTLY1SJU-5">
          <mxGeometry relative="1" as="geometry">
            <mxPoint x="495" y="901" as="sourcePoint" />
          </mxGeometry>
        </mxCell>
        <mxCell id="CsIlmke54vW7xTLY1SJU-48" value="订单取消提醒" style="html=1;verticalAlign=bottom;endArrow=open;dashed=1;endSize=8;curved=0;rounded=0;" edge="1" parent="1" target="CsIlmke54vW7xTLY1SJU-2">
          <mxGeometry relative="1" as="geometry">
            <mxPoint x="140" y="970" as="targetPoint" />
            <mxPoint x="410" y="970" as="sourcePoint" />
          </mxGeometry>
        </mxCell>
        <mxCell id="CsIlmke54vW7xTLY1SJU-49" value="loop" style="shape=umlFrame;whiteSpace=wrap;html=1;pointerEvents=0;" vertex="1" parent="1">
          <mxGeometry x="63" y="220" width="387" height="160" as="geometry" />
        </mxCell>
        <mxCell id="CsIlmke54vW7xTLY1SJU-50" value="" style="html=1;points=[[0,0,0,0,5],[0,1,0,0,-5],[1,0,0,0,5],[1,1,0,0,-5]];perimeter=orthogonalPerimeter;outlineConnect=0;targetShapes=umlLifeline;portConstraint=eastwest;newEdgeStyle={&quot;curved&quot;:0,&quot;rounded&quot;:0};" vertex="1" parent="1">
          <mxGeometry x="421" y="784" width="10" height="40" as="geometry" />
        </mxCell>
        <mxCell id="CsIlmke54vW7xTLY1SJU-51" value="订单状态改为审核通过" style="html=1;align=left;spacingLeft=2;endArrow=block;rounded=0;edgeStyle=orthogonalEdgeStyle;curved=0;rounded=0;" edge="1" target="CsIlmke54vW7xTLY1SJU-50" parent="1">
          <mxGeometry relative="1" as="geometry">
            <mxPoint x="419" y="770" as="sourcePoint" />
            <Array as="points">
              <mxPoint x="449" y="800" />
            </Array>
          </mxGeometry>
        </mxCell>
        <mxCell id="CsIlmke54vW7xTLY1SJU-52" value="" style="html=1;points=[[0,0,0,0,5],[0,1,0,0,-5],[1,0,0,0,5],[1,1,0,0,-5]];perimeter=orthogonalPerimeter;outlineConnect=0;targetShapes=umlLifeline;portConstraint=eastwest;newEdgeStyle={&quot;curved&quot;:0,&quot;rounded&quot;:0};" vertex="1" parent="1">
          <mxGeometry x="420" y="932" width="10" height="40" as="geometry" />
        </mxCell>
        <mxCell id="CsIlmke54vW7xTLY1SJU-53" value="订单状态改为审核失败" style="html=1;align=left;spacingLeft=2;endArrow=block;rounded=0;edgeStyle=orthogonalEdgeStyle;curved=0;rounded=0;" edge="1" target="CsIlmke54vW7xTLY1SJU-52" parent="1">
          <mxGeometry relative="1" as="geometry">
            <mxPoint x="425" y="912" as="sourcePoint" />
            <Array as="points">
              <mxPoint x="455" y="942" />
            </Array>
          </mxGeometry>
        </mxCell>
        <mxCell id="CsIlmke54vW7xTLY1SJU-54" value="【客户可以多次创建订单】" style="text;html=1;align=center;verticalAlign=middle;resizable=0;points=[];autosize=1;strokeColor=none;fillColor=none;" vertex="1" parent="1">
          <mxGeometry x="47" y="250" width="170" height="30" as="geometry" />
        </mxCell>
      </root>
    </mxGraphModel>
  </diagram>
</mxfile>
